Coordinates
version=1
nRows=6
nColumns=63
inDegrees=yes

Units are S.I. units (second, meters, Newtons, ...)
If the header above contains a line with 'inDegrees', this indicates whether rotational values are in degrees (yes) or radians (no).

endheader
time	pelvis_tilt	pelvis_list	pelvis_rotation	pelvis_tx	pelvis_ty	pelvis_tz	hip_flexion_r	hip_adduction_r	hip_rotation_r	knee_angle_r	knee_angle_r_beta	ankle_angle_r	subtalar_angle_r	mtp_angle_r	hip_flexion_l	hip_adduction_l	hip_rotation_l	knee_angle_l	knee_angle_l_beta	ankle_angle_l	subtalar_angle_l	mtp_angle_l	L5_S1_Flex_Ext	L5_S1_Lat_Bending	L5_S1_axial_rotation	L4_L5_Flex_Ext	L4_L5_Lat_Bending	L4_L5_axial_rotation	L3_L4_Flex_Ext	L3_L4_Lat_Bending	L3_L4_axial_rotation	L2_L3_Flex_Ext	L2_L3_Lat_Bending	L2_L3_axial_rotation	L1_L2_Flex_Ext	L1_L2_Lat_Bending	L1_L2_axial_rotation	L1_T12_Flex_Ext	L1_T12_Lat_Bending	L1_T12_axial_rotation	Abs_r3	Abs_r2	Abs_r1	Abs_t1	Abs_t2	neck_flexion	neck_bending	neck_rotation	arm_flex_r	arm_add_r	arm_rot_r	elbow_flex_r	pro_sup_r	wrist_flex_r	wrist_dev_r	arm_flex_l	arm_add_l	arm_rot_l	elbow_flex_l	pro_sup_l	wrist_flex_l	wrist_dev_l
      1.10169492	     -2.87303371	     -2.33510393	     88.01301501	      0.24589571	      0.91245741	      0.66996000	      7.09619793	     -5.55950490	    -12.97954019	     15.23324925	      0.26587036	     39.47505104	     12.93807465	      0.00000000	      8.99407021	      3.67929661	     -2.41785432	     17.07578633	      0.29802869	     37.28397218	      1.88616298	      0.00000000	      0.09601115	     -0.45323692	      2.36000358	      0.17830230	     -0.60280510	      2.50750380	      0.15773671	     -1.10200024	      2.50750380	      0.10973114	     -1.10200024	      2.06500313	      0.08915595	     -0.92424072	      1.91750291	      0.05486077	     -0.70206399	      1.77000269	      0.68579802	     -5.12710667	     13.12563192	      0.00000000	      0.00000000	     25.19114418	     -6.47704994	     -5.76211973	      6.97256413	    -10.94339528	     29.38590362	     53.56188937	     56.67908843	      4.63148969	     21.38644939	     27.01931617	     -7.80636224	     74.10377458	     45.25641016	     37.93542732	     -3.77473778	     -4.68962447
      1.11864407	     -2.80871424	     -2.25111350	     87.96651324	      0.24584046	      0.91295322	      0.66861407	      6.99874697	     -5.50661761	    -12.84325918	     15.25986845	      0.26633495	     39.66158192	     12.97929507	      0.00000000	      8.84336355	      3.61553010	     -2.47644024	     17.11526202	      0.29871767	     37.24878869	      1.84606811	      0.00000000	      0.10365616	     -0.44725386	      2.33846247	      0.19249986	     -0.59484763	      2.48461637	      0.17029671	     -1.08745304	      2.48461637	      0.11846863	     -1.08745304	      2.04615466	      0.09625511	     -0.91204007	      1.90000075	      0.05922913	     -0.69279623	      1.75384685	      0.74040561	     -5.05942512	     13.00582670	      0.00000000	      0.00000000	     25.14967090	     -6.52989643	     -5.72564437	      6.84718279	    -10.94018419	     29.43232451	     53.62368309	     56.67525061	      4.72075274	     21.44396362	     26.86508941	     -7.86576191	     73.96083127	     45.37039197	     37.85401693	     -3.76246744	     -4.67452361
      1.13559322	     -2.48749026	     -2.13548303	     87.60240803	      0.24591724	      0.91344492	      0.66735127	      6.88364221	     -5.08431171	    -11.90135055	     15.15796696	      0.26455643	     39.60892859	     12.39443858	      0.00000000	      8.60070352	      3.25124171	     -2.79119020	     17.05236289	      0.29761988	     37.41421430	      1.84530842	      0.00000000	      0.10585136	     -0.38619089	      2.20990325	      0.19657656	     -0.51363388	      2.34802220	      0.17390320	     -0.93898452	      2.34802220	      0.12097752	     -0.93898452	      1.93366534	      0.09829357	     -0.78752045	      1.79554639	      0.06048347	     -0.59820968	      1.65742744	      0.75608566	     -4.36866853	     12.29081889	      0.00000000	      0.00000000	     25.06032121	     -6.81604219	     -3.99770229	      7.23965634	    -10.92639554	     29.98422169	     53.31718197	     57.28987799	      6.16221581	     22.41374627	     25.11510842	     -8.17953172	     69.66509944	     46.46191028	     36.20789408	     -3.88371408	     -3.24270630
      1.15254237	     -2.25999791	     -2.00510180	     87.42177524	      0.24593063	      0.91397896	      0.66608310	      6.70358717	     -4.83164835	    -11.56707698	     15.03997752	      0.26249713	     39.72392282	     12.40904640	      0.00000000	      8.34450554	      3.01015373	     -2.86222074	     16.97953806	      0.29634884	     37.50444797	      1.83493010	      0.00000000	      0.10121623	     -0.35351898	      2.18653583	      0.18796866	     -0.47018025	      2.32319432	      0.16628815	     -0.85954605	      2.32319432	      0.11568003	     -0.85954605	      1.91321885	      0.09398939	     -0.72089591	      1.77656036	      0.05783495	     -0.54760090	      1.63990187	      0.72297742	     -3.99907742	     12.16085631	      0.00000000	      0.00000000	     24.74031824	     -7.29173755	     -3.83654947	      6.98419940	    -10.88805658	     29.75221230	     53.41579277	     57.44811371	      6.22747395	     22.24770370	     24.56745495	     -8.15754674	     68.48454584	     46.68355365	     35.91925318	     -3.96821384	     -3.42113045
      1.16949153	     -1.97075282	     -1.99142325	     87.23702214	      0.24575486	      0.91438942	      0.66517450	      6.65113917	     -4.47102384	    -10.86582093	     14.87428890	      0.25960532	     39.69089512	     11.96809077	      0.00000000	      8.25304618	      2.69477457	     -3.03461047	     16.95416019	      0.29590592	     37.58136907	      1.92248630	      0.00000000	      0.10734564	     -0.30769338	      2.11097156	      0.19935159	     -0.40923220	      2.24290728	      0.17635816	     -0.74812569	      2.24290728	      0.12268534	     -0.74812569	      1.84710012	      0.09968116	     -0.62744834	      1.71516439	      0.06133730	     -0.47661705	      1.58322867	      0.76675920	     -3.48068906	     11.74059053	      0.00000000	      0.00000000	     24.58229997	     -7.53755409	     -3.00703328	      6.99713668	    -10.87880137	     29.90163115	     53.35894596	     58.48909449	      6.47073311	     22.17970632	     23.55217820	     -8.05213517	     65.93454308	     46.97964435	     35.44875381	     -4.02130401	     -2.79877686
      1.18644068	     -1.81907431	     -1.91237896	     87.09874313	      0.24600472	      0.91487551	      0.66451700	      6.48978354	     -4.16942049	     -9.77121656	     14.60001757	      0.25481838	     39.52357652	     10.91000964	      0.00000000	      8.07704626	      2.51216973	     -3.10231626	     16.84568500	      0.29401267	     37.56230813	      1.97276720	      0.00000000	      0.10033759	     -0.29730490	      2.10883552	      0.18633694	     -0.39541552	      2.24063774	      0.16484462	     -0.72286714	      2.24063774	      0.11467583	     -0.72286714	      1.84523108	      0.09317349	     -0.60626415	      1.71342886	      0.05733290	     -0.46052529	      1.58162664	      0.71670136	     -3.36317250	     11.72871053	      0.00000000	      0.00000000	     24.14722912	     -7.56265783	     -3.25735740	      6.95394552	    -10.86461748	     30.28628318	     53.14724271	     57.78426004	      6.12938442	     20.98778407	     23.36254997	     -8.02418524	     65.18056052	     47.03154339	     36.04650392	     -4.15316947	     -2.23465578
